<?xml version="1.0" encoding="utf-8"?>
<!-- Generator: Adobe Illustrator 16.0.0, SVG Export Plug-In . SVG Version: 6.00 Build 0)  -->
<!DOCTYPE svg PUBLIC "-//W3C//DTD SVG 1.1//EN" "http://www.w3.org/Graphics/SVG/1.1/DTD/svg11.dtd">
<svg version="1.1" id="Layer_1" xmlns="http://www.w3.org/2000/svg" xmlns:xlink="http://www.w3.org/1999/xlink" x="0px" y="0px"
	 width="75.667px" height="84.667px" viewBox="14.167 6.167 75.667 84.667" enable-background="new 14.167 6.167 75.667 84.667"
	 xml:space="preserve">
<path fill="#FFFFFF" d="M45.76,41.56c-2.28,0-4.08,2-4.08,4.44s1.84,4.439,4.08,4.439c2.28,0,4.08-2,4.08-4.439
	C49.88,43.56,48.04,41.56,45.76,41.56z M60.359,41.56c-2.279,0-4.08,2-4.08,4.44s1.841,4.439,4.08,4.439c2.281,0,4.08-2,4.08-4.439
	S62.641,41.56,60.359,41.56z"/>
<path fill="#FFFFFF" d="M79.8,8H26.2c-4.52,0-8.2,3.68-8.2,8.24v54.08c0,4.56,3.68,8.24,8.2,8.24h45.36l-2.121-7.4l5.121,4.76
	l4.84,4.48L88,88V16.24C88,11.68,84.32,8,79.8,8z M64.359,60.24c0,0-1.439-1.721-2.639-3.24c5.239-1.48,7.239-4.76,7.239-4.76
	c-1.64,1.08-3.2,1.84-4.601,2.359c-2,0.84-3.92,1.4-5.799,1.721c-3.84,0.72-7.36,0.52-10.36-0.041
	c-2.28-0.439-4.24-1.079-5.88-1.719C41.4,54.2,40.4,53.76,39.4,53.2c-0.12-0.08-0.24-0.12-0.36-0.2c-0.08-0.04-0.12-0.08-0.16-0.12
	c-0.72-0.399-1.12-0.68-1.12-0.68s1.92,3.2,7,4.72c-1.2,1.52-2.68,3.32-2.68,3.32c-8.84-0.28-12.2-6.08-12.2-6.08
	c0-12.88,5.76-23.32,5.76-23.32c5.76-4.32,11.24-4.2,11.24-4.2l0.4,0.48c-7.2,2.08-10.52,5.24-10.52,5.24s0.88-0.48,2.36-1.16
	c4.28-1.88,7.68-2.4,9.08-2.52c0.24-0.04,0.44-0.08,0.68-0.08c2.44-0.32,5.2-0.4,8.08-0.08c3.8,0.44,7.88,1.56,12.04,3.84
	c0,0-3.16-3-9.96-5.08l0.56-0.64c0,0,5.48-0.12,11.24,4.2c0,0,5.76,10.44,5.76,23.32C76.6,54.16,73.2,59.96,64.359,60.24z"/>
</svg>
