<?xml version="1.0" encoding="utf-8"?>
<!-- Generator: Adobe Illustrator 16.0.0, SVG Export Plug-In . SVG Version: 6.00 Build 0)  -->
<!DOCTYPE svg PUBLIC "-//W3C//DTD SVG 1.1//EN" "http://www.w3.org/Graphics/SVG/1.1/DTD/svg11.dtd">
<svg version="1.1" id="Layer_1" xmlns="http://www.w3.org/2000/svg" xmlns:xlink="http://www.w3.org/1999/xlink" x="0px" y="0px"
	 width="200px" height="200px" viewBox="0 0 200 200" enable-background="new 0 0 200 200" xml:space="preserve">
<g>
	<path fill="#FFFFFF" d="M5.093,131.406c0-26.286,0-52.57,0-78.856c1.119-5.3,4.634-8.41,9.21-10.979
		C32.2,31.521,49.997,21.293,67.784,11.047c5.077-2.923,9.922-2.927,14.979,0.026c9.185,5.362,18.545,10.43,27.639,15.942
		c3.007,1.824,5.234,1.965,8.117-0.051c5.062-3.542,10.25-3.182,15.582-0.098c17.769,10.278,35.58,20.48,53.469,30.544
		c4.484,2.523,7.793,5.681,8.865,10.837c0,26.284,0,52.569,0,78.854c-1.301,5.152-4.879,8.135-9.359,10.652
		c-17.885,10.051-35.672,20.28-53.45,30.52c-4.942,2.848-9.69,2.91-14.631,0.037c-9.188-5.344-18.546-10.41-27.62-15.942
		c-3.178-1.937-5.528-2.101-8.599,0.039c-4.862,3.385-9.938,3.071-15.078,0.108c-17.721-10.216-35.466-20.392-53.297-30.414
		C9.92,139.582,6.342,136.59,5.093,131.406z M78.57,89.688c0,25.644,0,51.625,0,77.766c0.572-0.276,0.967-0.44,1.335-0.651
		c18.367-10.496,36.72-21.015,55.107-31.475c2.942-1.676,4.037-4.07,4.029-7.378c-0.059-23.481-0.029-46.963-0.035-70.445
		c0-0.644-0.068-1.29-0.117-2.213C118.624,66.847,98.649,78.238,78.57,89.688z M136.495,49.297c-0.74-0.493-1.181-0.822-1.653-1.094
		c-18.516-10.584-37.046-21.145-55.544-31.761c-2.839-1.631-5.432-1.525-8.249,0.093c-18.386,10.56-36.811,21.054-55.22,31.575
		c-0.567,0.324-1.098,0.712-1.778,1.156c0.704,0.426,1.174,0.725,1.658,1.001C34.013,60.722,52.338,71.14,70.606,81.656
		c3.205,1.846,6.081,1.868,9.276,0.012c10.536-6.126,21.146-12.125,31.729-18.168C119.813,58.813,128.021,54.133,136.495,49.297z
		 M190.07,70.886c-0.877,0.474-1.422,0.754-1.955,1.058c-13.67,7.804-27.323,15.631-41.026,23.375
		c-1.356,0.767-1.722,1.629-1.713,3.082c0.052,10.027,0.001,20.054,0.035,30.082c0.021,5.564-2.354,9.662-7.214,12.357
		c-2.448,1.357-4.836,2.827-7.313,4.126c-1.098,0.575-1.417,1.28-1.411,2.487c0.047,11.271,0.025,22.545,0.031,33.816
		c0,0.537,0.055,1.073,0.096,1.82c0.697-0.352,1.248-0.597,1.77-0.895c18.095-10.34,36.17-20.715,54.297-30.997
		c3.107-1.765,4.453-4.16,4.441-7.726c-0.069-23.479-0.035-46.96-0.035-70.438C190.07,72.424,190.07,71.812,190.07,70.886z
		 M72.031,167.553c0-1.055,0-1.796,0-2.537c0-24.096-0.034-48.19,0.053-72.288c0.009-2.341-0.173-4.071-2.826-4.626
		c-0.699-0.146-1.321-0.675-1.969-1.044C49.357,76.819,31.427,66.579,13.495,56.341c-0.578-0.33-1.179-0.616-2.036-1.061
		c0,0.909,0,1.567,0,2.226c0,23.287,0.052,46.573-0.05,69.86c-0.018,3.938,1.403,6.493,4.852,8.44
		c17.927,10.12,35.771,20.389,53.647,30.601C70.492,166.74,71.092,167.048,72.031,167.553z M145.52,88.914
		c14.053-8.024,27.885-15.924,42.021-23.996c-0.86-0.535-1.408-0.899-1.979-1.226c-7.502-4.299-15.011-8.592-22.517-12.886
		c-10.909-6.236-21.813-12.479-32.731-18.704c-3.465-1.976-6.404-1.666-9.149,0.944c5.581,3.186,11.11,6.425,16.718,9.519
		c5.145,2.838,7.623,7.121,7.525,12.956c-0.012,0.712-0.002,1.425-0.002,2.291c0.839-0.224,1.371-0.353,1.896-0.508
		c3.929-1.161,7.781-0.913,11.46,0.843c3.278,1.567,5.648,4.019,5.725,7.862c0.076,3.856-2.226,6.371-5.461,8.026
		c-2.707,1.386-5.646,1.958-8.694,1.544c-1.577-0.216-3.13-0.603-4.808-0.934C145.52,79.357,145.52,83.982,145.52,88.914z
		 M122.992,183.223c0-11.363,0-22.375,0-33.703c-9.906,5.662-19.584,11.192-29.466,16.842
		C103.416,172.021,113.092,177.559,122.992,183.223z M151.732,62.493c-1.951,0.824-3.811,1.435-5.483,2.375
		c-1.135,0.638-0.985,1.721-0.026,2.633c2.465,2.345,8.514,2.366,11.071,0.051c1.063-0.963,1.195-2.066-0.037-2.744
		C155.577,63.882,153.706,63.299,151.732,62.493z"/>
	<path fill="#FFFFFF" d="M132.99,87.009c-0.385,3.157-1.1,6.011-2.799,8.575c-3.646,5.512-10.635,5.566-14.172-0.014
		c-3.259-5.134-3.338-10.579-0.68-15.978c1.58-3.207,4.184-5.37,7.932-5.271c3.813,0.101,6.363,2.429,7.787,5.771
		C131.988,82.277,132.365,84.695,132.99,87.009z M126.748,86.946c-0.829-1.95-1.451-3.801-2.389-5.476
		c-0.646-1.156-1.69-0.998-2.61-0.021c-2.34,2.483-2.372,8.525-0.058,11.072c0.965,1.062,2.063,1.211,2.744-0.032
		C125.359,90.807,125.939,88.936,126.748,86.946z"/>
	<path fill="#FFFFFF" d="M103.902,135.439c-0.023,2.854-0.791,6.086-3.026,8.793c-3.697,4.476-9.261,4.457-12.979,0.015
		c-4.025-4.808-4.029-13.954-0.009-18.776c3.872-4.643,9.982-4.383,13.445,0.584C103.173,128.693,103.896,131.673,103.902,135.439z
		 M98.019,134.898c-0.801-1.979-1.396-3.84-2.298-5.537c-0.601-1.133-1.656-1.129-2.617-0.146
		c-2.402,2.452-2.426,8.734-0.045,11.223c0.927,0.969,1.987,1.103,2.621-0.049C96.605,138.705,97.209,136.848,98.019,134.898z"/>
	<path fill="#FFFFFF" d="M76.094,58.264c-4.365-0.006-7.635-0.828-10.361-3.156c-4.34-3.708-4.256-9.213,0.142-12.849
		c4.826-3.99,13.73-4.045,18.633-0.116c4.774,3.826,4.569,10.059-0.463,13.561C81.406,57.54,78.435,58.291,76.094,58.264z
		 M75.066,52.384c1.949-0.762,3.878-1.343,5.631-2.26c1.228-0.641,1.188-1.738,0.108-2.734c-2.505-2.313-8.572-2.323-11.08-0.011
		c-1.066,0.983-1.14,2.061,0.086,2.749C71.383,51.01,73.133,51.573,75.066,52.384z"/>
	<path fill="#FFFFFF" d="M151.831,127.868c0.042-4.888,0.972-8.359,3.647-11.185c3.336-3.521,8.365-3.522,11.731-0.035
		c4.676,4.851,4.938,14.459,0.534,19.608c-3.895,4.55-10.026,4.164-13.436-0.849C152.688,133.021,151.836,130.059,151.831,127.868z
		 M164.964,126.747c-0.746-1.894-1.284-3.72-2.166-5.36c-0.708-1.316-1.829-1.259-2.862-0.101c-2.262,2.536-2.264,8.388-0.002,10.92
		c1.031,1.155,2.154,1.217,2.864-0.103C163.68,130.463,164.218,128.639,164.964,126.747z"/>
	<path fill="#FFFFFF" d="M66.024,102.93c-0.384,3.086-1.063,5.889-2.687,8.42c-3.687,5.752-10.791,5.828-14.382,0.035
		c-3.161-5.099-3.235-10.496-0.601-15.824c1.578-3.191,4.121-5.35,7.918-5.266c3.871,0.084,6.361,2.409,7.805,5.719
		C65.027,98.188,65.396,100.615,66.024,102.93z M59.769,103.039c-0.802-1.979-1.385-3.853-2.307-5.542
		c-0.677-1.242-1.771-1.114-2.736-0.04c-2.331,2.592-2.299,8.58,0.056,11.085c0.92,0.979,1.965,1.136,2.609-0.021
		C58.327,106.842,58.946,104.982,59.769,103.039z"/>
	<path fill="#FFFFFF" d="M66.024,138.004c-0.386,3.221-1.117,6.135-2.889,8.732c-3.681,5.393-10.562,5.396-14.076-0.114
		c-3.271-5.129-3.37-10.581-0.701-15.976c1.608-3.252,4.195-5.422,8.097-5.256c3.796,0.16,6.208,2.469,7.621,5.698
		C65.026,133.264,65.396,135.689,66.024,138.004z M59.75,138.018c-0.787-1.938-1.355-3.754-2.244-5.396
		c-0.661-1.22-1.752-1.203-2.745-0.128c-2.356,2.554-2.353,8.527-0.016,11.082c0.989,1.08,2.057,1.164,2.724-0.073
		C58.383,141.811,58.97,139.939,59.75,138.018z"/>
	<path fill="#FFFFFF" d="M36.927,83.828c0.017,3.183-0.721,6.16-2.567,8.793c-3.704,5.287-10.369,5.21-13.984-0.145
		c-3.336-4.942-3.339-12.333-0.007-17.274c3.647-5.409,10.442-5.419,14.092-0.015C36.222,77.794,36.94,80.708,36.927,83.828z
		 M31.076,83.906c-0.811-1.99-1.394-3.86-2.319-5.542c-0.684-1.242-1.783-1.087-2.742-0.023c-2.311,2.562-2.275,8.616,0.063,11.073
		c0.922,0.969,1.968,1.122,2.613-0.033C29.626,87.704,30.248,85.854,31.076,83.906z"/>
	<path fill="#FFFFFF" d="M36.927,118.926c0.016,3.04-0.671,5.902-2.36,8.477c-3.694,5.625-10.619,5.621-14.293-0.002
		c-3.243-4.961-3.2-12.227,0.1-17.121c3.645-5.406,10.431-5.412,14.09-0.004C36.228,112.882,36.942,115.797,36.927,118.926z
		 M31.049,118.918c-0.762-1.909-1.307-3.729-2.198-5.363c-0.708-1.295-1.836-1.272-2.87-0.1c-2.25,2.55-2.245,8.359,0.004,10.928
		c1.036,1.182,2.152,1.199,2.86-0.099C29.734,122.65,30.284,120.829,31.049,118.918z"/>
</g>
</svg>
