<?xml version="1.0" encoding="utf-8"?>
<!-- Generator: Adobe Illustrator 16.0.0, SVG Export Plug-In . SVG Version: 6.00 Build 0)  -->
<!DOCTYPE svg PUBLIC "-//W3C//DTD SVG 1.1//EN" "http://www.w3.org/Graphics/SVG/1.1/DTD/svg11.dtd">
<svg version="1.1" id="Layer_1" xmlns="http://www.w3.org/2000/svg" xmlns:xlink="http://www.w3.org/1999/xlink" x="0px" y="0px"
	 width="200px" height="200px" viewBox="0 0 200 200" enable-background="new 0 0 200 200" xml:space="preserve">
<g>
	<path fill="none" stroke="#FFFFFF" stroke-width="4" stroke-linecap="round" stroke-miterlimit="10" d="M54.595,2.773
		c2.03,0,4.061,0,6.091,0c0.292,0.104,0.577,0.256,0.88,0.308c9.707,1.607,16.678,6.876,21.005,15.686
		c0.356,0.726,0.709,1.453,1.083,2.216c11.168-2.981,22.231-2.941,33.28-0.004c0.51-1.073,0.93-1.992,1.381-2.894
		c2.938-5.889,7.399-10.269,13.424-12.869c2.58-1.114,5.412-1.646,8.131-2.442c2.029,0,4.061,0,6.091,0
		c0.421,0.12,0.835,0.281,1.265,0.352c6.99,1.167,12.74,4.501,17.127,10.049c10.08,12.748,6.998,31.821-6.721,41.378
		c-1.396,0.972-1.484,1.749-1.002,3.213c3.751,11.349,3.635,22.719-0.538,33.898c-1.643,4.406-4.038,8.53-6.161,12.924
		c-0.007-0.004,0.228,0.203,0.49,0.35c4.758,2.627,8.6,6.272,11.594,10.768c5.51,8.271,8.332,17.152,5.883,27.188
		c-0.133,0.549,0.396,1.492,0.899,1.926c7.923,6.814,11.033,15.443,8.865,25.563c-2.843,13.271-11.505,21.468-24.122,25.726
		c-2.198,0.742-4.541,1.062-6.816,1.576c-2.285,0-4.568,0-6.854,0c-0.159-0.094-0.309-0.25-0.477-0.271
		c-4.326-0.534-8.321-1.964-12.063-4.206c-0.52-0.313-1.423-0.232-2.066-0.05c-3.152,0.889-6.236,2.058-9.426,2.774
		c-3.49,0.785-7.07,1.186-10.611,1.752c-3.299,0-6.599,0-9.896,0c-0.422-0.104-0.843-0.223-1.269-0.308
		c-5.246-1.054-10.587-1.776-15.699-3.278c-2.958-0.869-5.415-1.447-7.999,0.592c-0.715,0.565-1.696,0.852-2.597,1.109
		c-2.348,0.674-4.718,1.264-7.079,1.885c-2.284,0-4.567,0-6.853,0c-0.423-0.113-0.839-0.269-1.271-0.332
		c-9.305-1.373-17.04-5.64-22.993-12.891c-10.842-13.208-9.423-30.841,2.633-40.02c0.375-0.284,0.47-1.17,0.412-1.748
		c-0.219-2.135-0.84-4.264-0.801-6.385c0.209-11.688,5.226-21.084,14.086-28.514c1.534-1.285,3.296-2.294,4.972-3.443
		c-0.073-0.205-0.104-0.396-0.202-0.543c-9.696-14.612-11.991-30.238-6.518-46.967c0.159-0.485-0.233-1.372-0.651-1.786
		c-2.329-2.311-5.083-4.269-7.079-6.827C23.868,32.145,31.285,8.954,50.546,3.716C51.882,3.352,53.245,3.084,54.595,2.773z
		 M98.481,117.779c12.632-0.147,22.587-3.176,31.444-9.614c20.774-15.103,23.968-43.46,6.993-62.096
		c-17.079-18.753-47.22-21.281-67.207-5.637C52.415,53.971,47.529,76.302,58.32,94.445C67.692,110.2,82.313,117.051,98.481,117.779z
		 M71.666,122.218c-2.516,6.548-4.954,12.89-7.384,19.212c16.309,7.316,25.949,25.694,17.952,42.286
		c4.081,0.826,8.069,1.632,12.333,2.496c0-2.058-0.02-3.69,0.004-5.325c0.048-3.521,2.473-6.061,5.737-6.041
		c3.26,0.021,5.629,2.563,5.674,6.107c0.021,1.63,0.004,3.261,0.004,5.273c4.287-0.879,8.269-1.693,12.355-2.531
		c-7.76-16.118,1.17-34.883,17.918-42.307c-2.439-6.334-4.885-12.684-7.384-19.171c-7.371,3.781-14.883,5.88-22.89,6.703
		c0,1.778,0.004,3.416-0.002,5.054c-0.012,4.002-2.309,6.629-5.762,6.596c-3.386-0.03-5.643-2.627-5.656-6.508
		c-0.006-1.693,0-3.39,0-5.154C86.536,128.096,79.084,125.988,71.666,122.218z M49.982,150.004
		c-0.444,0.021-1.271,0.032-2.091,0.104c-9.952,0.865-16.201,9.639-13.659,19.17c3.084,11.563,16.501,19.353,28.055,16.285
		c8.746-2.322,13.258-10.282,10.757-18.974C70.323,157.123,60.664,150.063,49.982,150.004z M150.25,150.006
		c-10.211,0.03-19.83,6.959-22.686,16.34c-2.651,8.711,1.813,17.031,10.648,19.15c9.729,2.334,17.727-1.051,24.069-8.477
		c3.467-4.06,5.252-8.867,4.422-14.274C165.506,154.941,158.979,149.979,150.25,150.006z M127.811,25.132
		c9.379,4.728,17.102,11.402,22.908,20.189c6.051-3.447,9.465-12.002,7.688-19.054c-1.718-6.812-7.905-11.829-14.871-12.057
		C136.373,13.976,129.908,18.433,127.811,25.132z M72.776,25.008c-2.822-7.303-9.64-11.615-16.85-10.736
		c-7.458,0.91-13.087,6.471-14.169,13.997c-0.917,6.376,3.128,14.842,8.096,16.942C57.258,35.251,58.932,33.775,72.776,25.008z
		 M138.748,115.881c2.748,7.416,5.393,14.598,8.102,21.756c0.166,0.442,0.822,0.978,1.267,0.99c2.892,0.088,5.786,0.046,8.942,0.046
		c0.066-0.621,0.33-1.682,0.265-2.721c-0.562-8.955-4.541-15.986-12.146-20.792C141.813,113.034,141.542,113.2,138.748,115.881z
		 M53.158,138.52c2.931-7.578,5.826-15.057,8.733-22.569c-2.893-2.744-3.109-2.836-6.548-0.775
		c-6.027,3.611-9.607,9.068-11.424,15.742c-0.732,2.69-1.133,5.438-0.276,8.114C46.917,138.854,50.067,138.684,53.158,138.52z"/>
	<path fill="none" stroke="#FFFFFF" stroke-width="4" stroke-linecap="round" stroke-miterlimit="10" d="M105.986,93.967
		c0,3.399,0.014,6.635-0.004,9.868c-0.021,3.698-2.371,6.272-5.696,6.281c-3.326,0.007-5.694-2.573-5.716-6.261
		c-0.016-2.666-0.101-5.335,0.036-7.994c0.074-1.415-0.375-2.08-1.662-2.685c-7.07-3.329-10.947-10.943-9.473-18.35
		c1.046-5.263,4.453-8.267,9.443-9.564c4.483-1.164,9.066-1.186,13.589-0.261c8.539,1.749,12.644,8.639,10.312,17.14
		C115.241,87.866,111.529,91.689,105.986,93.967z M100.254,83.469c2.863,0.011,5.385-2.27,5.711-5.104
		c0.141-1.203-0.193-2.08-1.506-2.111c-2.771-0.063-5.546-0.067-8.318-0.005c-1.265,0.027-1.696,0.829-1.563,2.073
		C94.88,81.143,97.393,83.458,100.254,83.469z"/>
	<path fill="none" stroke="#FFFFFF" stroke-width="4" stroke-linecap="round" stroke-miterlimit="10" d="M81.234,62.565
		c-0.016,3.083-2.602,5.666-5.683,5.677c-3.152,0.01-5.791-2.676-5.723-5.828c0.066-3.08,2.699-5.622,5.778-5.581
		C78.694,56.876,81.25,59.48,81.234,62.565z"/>
	<path fill="none" stroke="#FFFFFF" stroke-width="4" stroke-linecap="round" stroke-miterlimit="10" d="M125.043,68.242
		c-3.079,0.013-5.686-2.554-5.727-5.635c-0.041-3.158,2.619-5.814,5.775-5.773c3.088,0.042,5.645,2.643,5.631,5.728
		C130.71,65.645,128.125,68.229,125.043,68.242z"/>
	<path fill="none" stroke="#FFFFFF" stroke-width="4" stroke-linecap="round" stroke-miterlimit="10" d="M105.979,157.84
		c0.002,1.266,0.049,2.532-0.008,3.793c-0.145,3.203-2.685,5.635-5.782,5.586c-3.018-0.049-5.506-2.459-5.599-5.568
		c-0.08-2.653-0.09-5.313,0.005-7.967c0.11-3.101,2.646-5.48,5.673-5.484c3.029-0.004,5.53,2.365,5.696,5.47
		C106.037,155.055,105.979,156.448,105.979,157.84z"/>
</g>
</svg>
