<?xml version="1.0" encoding="utf-8"?>
<!-- Generator: Adobe Illustrator 23.0.1, SVG Export Plug-In . SVG Version: 6.00 Build 0)  -->
<svg version="1.1" id="Layer_1" xmlns="http://www.w3.org/2000/svg" xmlns:xlink="http://www.w3.org/1999/xlink" x="0px" y="0px"
	 viewBox="0 0 32 32" style="enable-background:new 0 0 32 32;" xml:space="preserve">
<style type="text/css">
	.st0{fill-rule:evenodd;clip-rule:evenodd;fill:#FFFFFF;}
</style>
<g id="Shape_7">
	<g>
		<path class="st0" d="M7.2,14h12.5c0.6,0,1.1-0.5,1.1-1s-0.5-1-1.1-1H7.2l2.5-2.3c0.4-0.4,0.4-1,0-1.4c-0.4-0.4-1.1-0.4-1.5,0
			l-4.3,4.1c0,0,0,0-0.1,0.1c0,0,0,0,0,0c0,0,0,0,0,0c0,0,0,0,0,0c0,0,0,0,0,0c0,0,0,0,0,0s0,0,0,0c0,0,0,0,0,0c0,0,0,0,0,0
			c0,0,0,0,0,0c0,0,0,0,0,0.1c0,0,0,0,0,0.1c0,0,0,0,0,0c0,0.1,0,0.1,0,0.2c0,0,0,0,0,0c0,0,0,0,0,0.1c0,0,0,0,0,0.1c0,0,0,0,0,0
			c0,0,0,0,0,0c0,0,0,0,0,0c0,0,0,0,0,0c0,0,0,0,0,0c0,0,0,0,0,0c0,0,0,0,0,0c0,0,0,0,0,0c0,0,0,0,0,0c0,0,0,0.1,0.1,0.1h0l4.3,4.1
			c0.4,0.4,1.1,0.4,1.5,0c0.4-0.4,0.4-1,0-1.4L7.2,14z M29.4,18.9C29.4,18.9,29.4,18.9,29.4,18.9c0-0.1,0-0.1,0-0.1c0,0,0,0,0,0
			c0,0,0,0,0,0c0,0,0,0,0,0c0,0,0,0,0,0c0,0,0,0,0,0c0,0,0,0,0,0c0,0,0,0,0,0c0,0,0,0,0,0c0,0,0,0,0,0c0,0,0,0-0.1-0.1c0,0,0,0,0,0
			l-4.3-4.1c-0.4-0.4-1.1-0.4-1.5,0c-0.4,0.4-0.4,1,0,1.4l2.5,2.3H13.3c-0.6,0-1.1,0.5-1.1,1c0,0.6,0.5,1,1.1,1h12.5l-2.5,2.3
			c-0.4,0.4-0.4,1,0,1.4c0.4,0.4,1.1,0.4,1.5,0l4.3-4.1v0c0,0,0,0,0.1-0.1c0,0,0,0,0,0c0,0,0,0,0,0c0,0,0,0,0,0c0,0,0,0,0,0
			c0,0,0,0,0,0c0,0,0,0,0,0c0,0,0,0,0,0c0,0,0,0,0,0c0,0,0,0,0,0c0,0,0,0,0,0c0,0,0,0,0-0.1c0,0,0,0,0,0
			C29.4,19.1,29.4,19,29.4,18.9C29.4,18.9,29.4,18.9,29.4,18.9z"/>
	</g>
</g>
</svg>
