<?xml version="1.0" encoding="utf-8"?>
<!-- Generator: Adobe Illustrator 23.0.1, SVG Export Plug-In . SVG Version: 6.00 Build 0)  -->
<svg version="1.1" id="Layer_1" xmlns="http://www.w3.org/2000/svg" xmlns:xlink="http://www.w3.org/1999/xlink" x="0px" y="0px"
	 viewBox="0 0 32 32" style="enable-background:new 0 0 32 32;" xml:space="preserve">
<style type="text/css">
	.st0{fill-rule:evenodd;clip-rule:evenodd;fill:#FFFFFF;}
</style>
<g id="Shape_10">
	<g>
		<path class="st0" d="M14.1,9h-1.3c-0.2,0-0.3,0.1-0.3,0.3c0,0.2,0.1,0.3,0.3,0.3h1.3c0.2,0,0.3-0.1,0.3-0.3
			C14.4,9.1,14.2,9,14.1,9z M9,13.9c-4,0-7.3,2.9-7.3,7c0,1.9,0.8,3.7,2.2,5C5.2,27.1,7,27.8,9,27.8c2,0,3.8-0.7,5.2-1.9
			c1.4-1.3,2.2-3.1,2.2-5C16.4,16.8,13.1,13.9,9,13.9z M9,24c-1.7,0-3.1-1.4-3.1-3.1c0-1.7,1.4-3.1,3.1-3.1s3.1,1.4,3.1,3.1
			C12.1,22.6,10.7,24,9,24z M24.1,17.7c-2.9,0-5.2,2.3-5.2,5.2c0,1.4,0.5,2.6,1.5,3.5c1,0.9,2.3,1.4,3.7,1.4c1.4,0,2.7-0.5,3.7-1.4
			c1-0.9,1.5-2.2,1.5-3.5C29.3,20,27,17.7,24.1,17.7z M24.1,25.1c-1.2,0-2.2-1-2.2-2.2c0-1.2,1-2.2,2.2-2.2s2.2,1,2.2,2.2
			C26.3,24.1,25.3,25.1,24.1,25.1z M24.1,16.9c1.7,0,3.3,0.7,4.4,1.9c1.3-2.2,0.6-7.2-1.7-7.2h-1.3v-3c0-0.4-0.4-0.8-0.8-0.8
			c-0.4,0-0.8,0.4-0.8,0.8v3h-5.5c-0.4-1.8-0.9-4.2-1.1-5.4c-0.4-2-1.7-2-2.5-2h-8c-0.5,0-1.9,0-2.1,1.9C4.5,7.4,4,13.5,4,13.6
			c0,0.3,0.2,0.6,0.5,0.6c0.1,0,0.3,0,0.4-0.1c0,0,0,0,0,0c1.2-0.7,2.6-1,4.1-1c2.2,0,4.2,0.8,5.7,2.2c1.5,1.4,2.4,3.4,2.4,5.6
			c0,0.4,0,0.8-0.1,1.2h1.2C18.6,19.1,21.1,16.9,24.1,16.9z M10.3,11.6H5.3C5.5,9.7,5.8,7,5.8,6.2c0.1-0.8,0.3-0.8,0.9-0.8h3.6
			L10.3,11.6L10.3,11.6z M11.2,11.6V5.4h3.5c0.7,0,1.1,0,1.3,1.1c0.2,0.8,0.7,3.2,1.1,5.1H11.2z"/>
	</g>
</g>
</svg>
