<?xml version="1.0" encoding="utf-8"?>
<!-- Generator: Adobe Illustrator 23.0.1, SVG Export Plug-In . SVG Version: 6.00 Build 0)  -->
<svg version="1.1" id="Layer_1" xmlns="http://www.w3.org/2000/svg" xmlns:xlink="http://www.w3.org/1999/xlink" x="0px" y="0px"
	 viewBox="0 0 32 32" style="enable-background:new 0 0 32 32;" xml:space="preserve">
<style type="text/css">
	.st0{fill-rule:evenodd;clip-rule:evenodd;fill:#FFFFFF;}
</style>
<g id="Shape_6">
	<g>
		<path class="st0" d="M30,14.7l-4.2-4.3v-5c0-0.9-0.7-1.6-1.6-1.6s-1.6,0.7-1.6,1.6v1.7L19.4,4c-1.6-1.6-4.3-1.6-5.8,0L3,14.7
			c-0.6,0.6-0.6,1.7,0,2.3c0.6,0.6,1.6,0.6,2.3,0L15.8,6.3c0.3-0.3,1-0.3,1.3,0L27.7,17c0.3,0.3,0.7,0.5,1.1,0.5s0.8-0.2,1.1-0.5
			C30.6,16.4,30.6,15.4,30,14.7z M17,9.4c-0.3-0.3-0.8-0.3-1.1,0l-9.3,9.4c-0.1,0.1-0.2,0.4-0.2,0.6v6.9c0,1.6,1.3,2.9,2.9,2.9h4.6
			v-7.2h5.2v7.2h4.6c1.6,0,2.9-1.3,2.9-2.9v-6.9c0-0.2-0.1-0.4-0.2-0.6L17,9.4z"/>
	</g>
</g>
</svg>
