<?xml version="1.0" encoding="utf-8"?>
<!-- Generator: Adobe Illustrator 23.0.1, SVG Export Plug-In . SVG Version: 6.00 Build 0)  -->
<svg version="1.1" id="Layer_1" xmlns="http://www.w3.org/2000/svg" xmlns:xlink="http://www.w3.org/1999/xlink" x="0px" y="0px"
	 viewBox="0 0 32 32" style="enable-background:new 0 0 32 32;" xml:space="preserve">
<style type="text/css">
	.st0{fill-rule:evenodd;clip-rule:evenodd;fill:#FFFFFF;}
</style>
<g id="Shape_17">
	<g>
		<path class="st0" d="M12.8,3H4.6C3.5,3,2.7,3.9,2.7,4.9v4.9c0,1.1,0.9,1.9,1.9,1.9h8.2c1.1,0,1.9-0.9,1.9-1.9V4.9
			C14.7,3.9,13.9,3,12.8,3z M12.8,14H4.6c-1.1,0-1.9,0.9-1.9,1.9v11.5c0,1.1,0.9,1.9,1.9,1.9h8.2c1.1,0,1.9-0.9,1.9-1.9V15.9
			C14.7,14.8,13.9,14,12.8,14z M27.1,20.6h-8.2c-1.1,0-1.9,0.9-1.9,1.9v4.9c0,1.1,0.9,1.9,1.9,1.9h8.2c1.1,0,1.9-0.9,1.9-1.9v-4.9
			C29,21.4,28.1,20.6,27.1,20.6z M27.1,3h-8.2c-1.1,0-1.9,0.9-1.9,1.9v11.5c0,1.1,0.9,1.9,1.9,1.9h8.2c1.1,0,1.9-0.9,1.9-1.9V4.9
			C29,3.9,28.1,3,27.1,3z"/>
	</g>
</g>
</svg>
