<?xml version="1.0" encoding="utf-8"?>
<!-- Generator: Adobe Illustrator 23.0.1, SVG Export Plug-In . SVG Version: 6.00 Build 0)  -->
<svg version="1.1" id="Layer_1" xmlns="http://www.w3.org/2000/svg" xmlns:xlink="http://www.w3.org/1999/xlink" x="0px" y="0px"
	 viewBox="0 0 32 32" style="enable-background:new 0 0 32 32;" xml:space="preserve">
<style type="text/css">
	.st0{fill-rule:evenodd;clip-rule:evenodd;fill:#FFFFFF;}
</style>
<g id="Shape_24">
	<g>
		<path class="st0" d="M11,17.9c0.7,0,1.4,0,2.1-0.1v-7.4c-0.7-0.1-1.4-0.1-2.1-0.1c-4.2,0-7.6,1.5-7.6,3.4v0.7
			C3.4,16.3,6.8,17.9,11,17.9z M11,21.7c0.7,0,1.4,0,2.1-0.1v-2.2c-0.7,0.1-1.4,0.1-2.1,0.1c-3.7,0-6.7-1.2-7.4-2.7
			c-0.1,0.2-0.2,0.5-0.2,0.7v0.7C3.4,20.2,6.8,21.7,11,21.7z M13.1,23.3c-0.7,0.1-1.4,0.1-2.1,0.1c-3.7,0-6.7-1.2-7.4-2.7
			c-0.1,0.2-0.2,0.5-0.2,0.7v0.7c0,1.9,3.4,3.4,7.6,3.4c0.8,0,1.6-0.1,2.4-0.2c-0.2-0.4-0.3-0.8-0.3-1.2L13.1,23.3L13.1,23.3z
			 M22,4.4c-4.2,0-7.6,1.5-7.6,3.4v0.7c0,1.9,3.4,3.4,7.6,3.4s7.6-1.5,7.6-3.4V7.8C29.6,5.9,26.2,4.4,22,4.4z M22,13.7
			c-3.7,0-6.7-1.2-7.4-2.7c-0.1,0.2-0.2,0.5-0.2,0.7v0.7c0,1.9,3.4,3.4,7.6,3.4s7.6-1.5,7.6-3.4v-0.7c0-0.2-0.1-0.5-0.2-0.7
			C28.7,12.5,25.6,13.7,22,13.7z M22,17.6c-3.7,0-6.7-1.2-7.4-2.7c-0.1,0.2-0.2,0.5-0.2,0.7v0.7c0,1.9,3.4,3.4,7.6,3.4
			s7.6-1.5,7.6-3.4v-0.7c0-0.2-0.1-0.5-0.2-0.7C28.7,16.4,25.6,17.6,22,17.6z M22,21.6c-3.7,0-6.7-1.2-7.4-2.7
			c-0.1,0.2-0.2,0.5-0.2,0.7v0.7c0,1.9,3.4,3.4,7.6,3.4s7.6-1.5,7.6-3.4v-0.7c0-0.2-0.1-0.5-0.2-0.7C28.7,20.4,25.6,21.6,22,21.6z
			 M22,25.5c-3.7,0-6.7-1.2-7.4-2.7c-0.1,0.2-0.2,0.5-0.2,0.7v0.7c0,1.9,3.4,3.4,7.6,3.4s7.6-1.5,7.6-3.4v-0.7
			c0-0.2-0.1-0.5-0.2-0.7C28.7,24.3,25.6,25.5,22,25.5z"/>
	</g>
</g>
</svg>
