<?xml version="1.0" encoding="utf-8"?>
<!-- Generator: Adobe Illustrator 23.0.1, SVG Export Plug-In . SVG Version: 6.00 Build 0)  -->
<svg version="1.1" id="Layer_1" xmlns="http://www.w3.org/2000/svg" xmlns:xlink="http://www.w3.org/1999/xlink" x="0px" y="0px"
	 viewBox="0 0 32 32" style="enable-background:new 0 0 32 32;" xml:space="preserve">
<style type="text/css">
	.st0{fill:#FFFFFF;}
</style>
<g id="Shape_2">
	<g>
		<path class="st0" d="M28.3,6c-0.1,0-0.2,0-0.3,0.1L3.3,15.5c-0.7,0.3-0.7,1.3,0,1.5L9.1,19l3.5,7c0,0,0,0,0,0l0,0l0,0
			c0.1,0.1,0.2,0.2,0.3,0.2c0.1,0,0.2,0,0.2-0.1l3.2-2.8l5.3,4.1c0.3,0.2,0.6,0.3,1,0.3c0.7,0,1.4-0.5,1.6-1.2L29.1,7
			C29.3,6.5,28.8,6,28.3,6z M12.7,20.6l0.3,3.6l-2.6-5.4l13.8-8.3L12.7,20.6z"/>
	</g>
</g>
</svg>
