<?xml version="1.0" encoding="utf-8"?>
<!-- Generator: Adobe Illustrator 23.0.1, SVG Export Plug-In . SVG Version: 6.00 Build 0)  -->
<svg version="1.1" id="Layer_1" xmlns="http://www.w3.org/2000/svg" xmlns:xlink="http://www.w3.org/1999/xlink" x="0px" y="0px"
	 viewBox="0 0 32 32" style="enable-background:new 0 0 32 32;" xml:space="preserve">
<style type="text/css">
	.st0{fill:#FFFFFF;}
</style>
<g id="Shape_3">
	<g>
		<path class="st0" d="M26.2,9c1.1-0.7,2-1.8,2.4-3c-1.1,0.6-2.2,1.1-3.5,1.3c-1-1.1-2.4-1.7-4-1.7c-3.5,0-6.1,3.3-5.3,6.8
			C11.2,12,7.2,9.8,4.5,6.5C3.1,9,3.8,12.2,6.2,13.9c-0.9,0-1.7-0.3-2.5-0.7c-0.1,2.5,1.8,4.9,4.4,5.5c-0.8,0.2-1.6,0.3-2.5,0.1
			c0.7,2.2,2.7,3.8,5.1,3.8c-2.3,1.8-5.2,2.6-8.1,2.3c2.4,1.6,5.3,2.5,8.4,2.5c10.2,0,15.9-8.6,15.6-16.4c1.1-0.8,2-1.7,2.7-2.8
			C28.4,8.5,27.3,8.8,26.2,9z"/>
	</g>
</g>
</svg>
