<?xml version="1.0" encoding="utf-8"?>
<!-- Generator: Adobe Illustrator 23.0.1, SVG Export Plug-In . SVG Version: 6.00 Build 0)  -->
<svg version="1.1" id="Layer_1" xmlns="http://www.w3.org/2000/svg" xmlns:xlink="http://www.w3.org/1999/xlink" x="0px" y="0px"
	 viewBox="0 0 1442 183" style="enable-background:new 0 0 1442 183;" xml:space="preserve">
<style type="text/css">
	.st0{fill:url(#SVGID_1_);}
</style>
<linearGradient id="SVGID_1_" gradientUnits="userSpaceOnUse" x1="979" y1="1444" x2="979" y2="1627" gradientTransform="matrix(1 0 0 1 -258 -1444)">
	<stop  offset="0" style="stop-color:#FFF8DF"/>
	<stop  offset="1" style="stop-color:#FFF8DF;stop-opacity:0"/>
</linearGradient>
<path class="st0" d="M720.6,0C459.7,0,214.2,66.1,0,182.6v0.4h1442C1227.6,66.3,981.8,0,720.6,0z M976.8,77.9c0.2-1.4,2.2-1.4,2.4,0
	l1.2,8.2c0.1,0.5,0.5,0.9,1,1l8.2,1.2c1.4,0.2,1.4,2.2,0,2.4l-8.2,1.2c-0.5,0.1-0.9,0.5-1,1l-1.2,8.2c-0.2,1.4-2.2,1.4-2.4,0
	l-1.2-8.2c-0.1-0.5-0.5-0.9-1-1l-8.2-1.2c-1.4-0.2-1.4-2.2,0-2.4l8.2-1.2c0.5-0.1,0.9-0.5,1-1L976.8,77.9z M465.5,41.9
	c-0.2-1.4-2.2-1.4-2.4,0l-1.2,8.2c-0.1,0.5-0.5,0.9-1,1l-8.2,1.2c-1.4,0.2-1.4,2.2,0,2.4l8.2,1.2c0.5,0.1,0.9,0.5,1,1l1.2,8.2
	c0.2,1.4,2.2,1.4,2.4,0l1.2-8.2c0.1-0.5,0.5-0.9,1-1l8.2-1.2c1.4-0.2,1.4-2.2,0-2.4l-8.2-1.2c-0.5-0.1-0.9-0.5-1-1L465.5,41.9z
	 M318.1,94.9c0.2-1.4,2.2-1.4,2.4,0l3.1,20.3c0.1,0.5,0.5,0.9,1,1l20.3,3.1c1.4,0.2,1.4,2.2,0,2.4l-20.3,3.1c-0.5,0.1-0.9,0.5-1,1
	l-3.1,20.3c-0.2,1.4-2.2,1.4-2.4,0l-3.1-20.3c-0.1-0.5-0.5-0.9-1-1l-20.3-3.1c-1.4-0.2-1.4-2.2,0-2.4l20.3-3.1c0.5-0.1,0.9-0.5,1-1
	L318.1,94.9z M1043.1,47.9c-0.2-1.4-2.2-1.4-2.4,0l-1.1,7.3c-0.1,0.5-0.5,0.9-1,1l-7.3,1.1c-1.4,0.2-1.4,2.2,0,2.4l7.3,1.1
	c0.5,0.1,0.9,0.5,1,1l1.1,7.3c0.2,1.4,2.2,1.4,2.4,0l1.1-7.3c0.1-0.5,0.5-0.9,1-1l7.3-1.1c1.4-0.2,1.4-2.2,0-2.4l-7.3-1.1
	c-0.5-0.1-0.9-0.5-1-1L1043.1,47.9z M1097.7,99.9c0.2-1.4,2.2-1.4,2.4,0l2.4,15.9c0.1,0.5,0.5,0.9,1,1l15.9,2.4
	c1.4,0.2,1.4,2.2,0,2.4l-15.9,2.4c-0.5,0.1-0.9,0.5-1,1l-2.4,15.9c-0.2,1.4-2.2,1.4-2.4,0l-2.4-15.9c-0.1-0.5-0.5-0.9-1-1l-15.9-2.4
	c-1.4-0.2-1.4-2.2,0-2.4l15.9-2.4c0.5-0.1,0.9-0.5,1-1L1097.7,99.9z"/>
</svg>
