<?xml version="1.0" encoding="utf-8"?>
<!-- Generator: Adobe Illustrator 16.0.0, SVG Export Plug-In . SVG Version: 6.00 Build 0)  -->
<!DOCTYPE svg PUBLIC "-//W3C//DTD SVG 1.1//EN" "http://www.w3.org/Graphics/SVG/1.1/DTD/svg11.dtd">
<svg version="1.1" id="Layer_1" xmlns="http://www.w3.org/2000/svg" xmlns:xlink="http://www.w3.org/1999/xlink" x="0px" y="0px"
	 width="200px" height="200px" viewBox="0 0 200 200" enable-background="new 0 0 200 200" xml:space="preserve">
<g>
	<path fill="#FFFFFF" d="M69.447,3.598c3.426,0.629,6.897,1.067,10.269,1.915c23.966,6.026,41.614,25.886,44.933,50.379
		c0.845,6.242,0.75,12.447-0.371,18.643c-0.073,0.41-0.066,0.835-0.106,1.391c2.224-0.273,4.3-0.593,6.388-0.775
		c17.119-1.505,32.192,3.573,45.303,14.479c10.158,8.453,16.961,19.063,19.346,32.226c0.619,3.422,0.91,6.901,1.354,10.355
		c0,1.875,0,3.75,0,5.625c-0.109,0.602-0.272,1.2-0.322,1.809c-1.053,12.957-5.742,24.445-14.061,34.406
		c-2.068,2.48-4.476,4.693-6.826,6.92c-1.894,1.791-3.465,1.863-4.723,0.479c-1.229-1.355-0.855-2.942,0.967-4.645
		c1.78-1.656,3.497-3.383,5.223-5.099c0.311-0.312,0.521-0.726,0.839-1.179c-13.364-1.154-25.479,8.922-27.886,17.855
		c3.047-1.146,5.896-2.197,8.727-3.291c1.982-0.765,3.477-0.396,4.193,1.104c0.762,1.602,0.088,3.25-1.896,4.015
		c-3.251,1.253-6.514,2.53-9.865,3.442c-3.226,0.875-6.57,1.303-9.861,1.928c-3,0-6,0-9,0c-3.772-0.746-7.602-1.293-11.313-2.271
		c-24.013-6.317-41.176-25.748-44.443-50.324c-0.434-3.264-0.518-6.604-0.439-9.9c0.076-3.225,0.567-6.441,0.89-9.807
		c-2.252,0.262-4.572,0.568-6.897,0.795c-30.267,2.938-58.929-18.934-64.179-48.983c-0.448-2.568-0.741-5.164-1.105-7.746
		c0-1.875,0-3.75,0-5.624c0.494-3.313,0.733-6.688,1.521-9.929C11.95,27.752,26.516,11.981,50.586,5.421
		c3.099-0.845,6.322-1.227,9.487-1.823C63.198,3.598,66.322,3.598,69.447,3.598z M119.473,60.043
		c-1.063-11.976-5.234-22.21-12.549-31.184c-0.789-0.967-1.463-1.126-2.679-0.84c-2.661,0.625-5.384,1.318-8.092,1.368
		c-14.572,0.264-25.421-6.078-32.442-18.86c-0.527-0.961-1.047-1.326-2.151-1.239c-11.935,0.93-22.557,5.1-31.816,12.716
		c-0.789,0.647-1.153,1.167-0.801,2.322c5.098,16.775-1.863,33.38-17.391,41.517c-1.076,0.562-1.388,1.145-1.279,2.307
		c1.096,11.784,5.358,22.238,12.971,31.327c0.822,0.979,1.503,1.316,2.824,0.882c4.632-1.516,9.404-1.944,14.244-1.262
		c11.897,1.672,20.676,7.864,26.533,18.322c0.304,0.543,1.206,1.146,1.766,1.086c2.849-0.296,5.669-0.858,8.516-1.206
		c1.22-0.148,1.647-0.83,2.003-1.852c3.958-11.409,10.809-20.727,20.294-28.168c0.71-0.557,1.314-1.491,1.559-2.363
		c2.619-9.406,7.941-16.753,16.49-21.564C119.146,62.409,120.057,61.526,119.473,60.043z M190.934,135.786
		c-0.113-1.808-0.311-3.613-0.313-5.421c-0.002-1.1-0.563-1.398-1.43-1.824c-3.346-1.646-6.953-2.995-9.858-5.238
		c-10.594-8.185-14.933-19.16-13.519-32.457c0.067-0.645-0.217-1.683-0.687-1.977c-10.284-6.418-21.489-9.135-33.591-8.235
		c-1.311,0.099-1.75,0.694-2.105,1.839c-1.563,5.03-4.177,9.481-7.883,13.228c-8.229,8.32-18.201,11.718-29.813,10.354
		c-0.893-0.104-1.744-0.412-2.414,0.725c-6.186,10.5-8.828,21.783-7.567,33.928c0.061,0.595,0.718,1.429,1.284,1.629
		c16.447,5.864,25.458,19.912,23.842,37.422c-0.117,1.28,0.229,1.876,1.292,2.488c10.144,5.838,21.005,8.395,32.701,7.479
		c1.631-0.13,2.295-0.732,2.832-2.224c5.461-15.187,21.04-24.671,36.83-22.442c1.096,0.153,1.56-0.201,2.067-1.031
		C187.924,155.359,190.622,145.938,190.934,135.786z M23.938,27.633C15.856,37.041,11.38,47.665,10.312,59.87
		C20.764,54.892,27.749,40.344,23.938,27.633z M123.504,81.934c-12.018,3.071-21.777,9.135-29.728,18.61
		C107.488,102.041,120.006,92.921,123.504,81.934z M171.432,93.4c-1.6,12.366,7.25,25.813,17.838,28.866
		C186.355,110.795,180.484,101.299,171.432,93.4z M101.296,177.396c1.573-12.387-7.582-25.553-18.187-28.711
		C86.168,160.206,92.166,169.602,101.296,177.396z M100.943,22.974C94.338,16.053,76.403,8.495,69.905,9.817
		C74.628,19.776,90.511,26.558,100.943,22.974z M29.141,105.409c9.306,7.752,19.623,12.095,31.569,13.077
		C55.859,108.305,40.665,102.003,29.141,105.409z M119.563,68.742c-5.174,2.903-10.717,9.492-10.953,12.592
		c2.724-1.093,5.502-2.181,8.254-3.336c0.455-0.191,1.048-0.622,1.139-1.036C118.566,74.36,119.009,71.73,119.563,68.742z"/>
	<path fill="#FFFFFF" d="M35.886,63.166c-0.866,16.38,13.53,30.604,30.153,29.81c14.903-0.711,27.082-12.481,27.797-26.863
		c0.782-15.757-9.654-28.854-25.023-30.879c-10.705-1.411-19.646,2.298-26.586,10.621c-1.984,2.377-3.384,2.895-4.934,1.598
		c-1.434-1.199-1.275-2.788,0.504-5.073c8.409-10.788,22.67-15.422,36.315-11.804c12.964,3.438,23.072,14.759,25.001,28.006
		c2.841,19.482-10.085,36.842-29.619,39.776C51.501,101.061,33.65,88.036,30.851,69.99c-0.511-3.295-0.285-6.708-0.358-10.065
		c-0.011-0.55,0.125-1.125,0.311-1.648c0.513-1.446,1.619-2.046,3.091-1.806c1.403,0.23,2.233,1.152,2.242,2.583
		C36.145,60.423,35.975,61.794,35.886,63.166z"/>
	<path fill="#FFFFFF" d="M59.075,53.135c-1.189,0.455-2.166,0.855-3.162,1.2c-1.787,0.617-3.255,0.018-3.862-1.54
		c-0.57-1.462,0.072-2.896,1.735-3.618c1.774-0.769,3.581-1.461,5.391-2.142c2.163-0.81,3.428-0.272,4.3,1.895
		c2.763,6.89,5.489,13.794,8.231,20.691c0.853,2.146,1.73,4.28,2.555,6.436c0.726,1.897,0.176,3.454-1.376,4.076
		c-1.567,0.628-3.071-0.107-3.829-1.999c-3.111-7.758-6.191-15.528-9.283-23.293C59.57,54.323,59.353,53.811,59.075,53.135z"/>
	<path fill="#FFFFFF" d="M136.042,169.828c-19.008,0.027-34.636-15.574-34.633-34.573c0.001-19.135,15.639-34.808,34.671-34.75
		c19.251,0.058,34.697,15.521,34.669,34.694C170.717,154.436,155.32,169.799,136.042,169.828z M136.066,164.203
		c16,0.057,28.947-12.79,29.058-28.836c0.112-16.083-12.787-29.143-28.873-29.234c-16.006-0.094-29.097,12.881-29.217,28.96
		C106.911,151.043,119.98,164.146,136.066,164.203z"/>
	<path fill="#FFFFFF" d="M136.959,123.016c-0.798,1.813-1.645,3.733-2.566,5.821c1.006,0.269,1.891,0.479,2.76,0.741
		c5.977,1.791,9.646,7.32,8.716,13.113c-0.957,5.963-6.396,10.606-12.159,10.383c-6.182-0.243-10.98-4.825-11.609-11.104
		c-0.056-0.557-0.056-1.128,0.002-1.682c0.203-1.954,1.282-3.025,2.934-2.969c1.646,0.059,2.596,1.193,2.665,3.184
		c0.135,3.857,2.008,6.239,5.364,6.821c2.834,0.493,5.719-1.218,6.84-4.052c1.061-2.683,0.303-5.957-2.223-7.211
		c-1.856-0.926-4.138-1.438-6.211-1.389c-3.789,0.092-5.115-1.482-3.593-4.972c1.546-3.542,3.085-7.085,4.647-10.617
		c0.972-2.19,2.002-2.709,4.295-2.142c3.205,0.8,6.404,1.621,9.596,2.475c2.146,0.573,3.036,1.866,2.575,3.605
		c-0.444,1.676-1.896,2.316-4.062,1.781c-2.543-0.625-5.08-1.261-7.617-1.887C137.26,122.908,137.195,122.949,136.959,123.016z"/>
</g>
</svg>
