<?xml version="1.0" encoding="utf-8"?>
<!-- Generator: Adobe Illustrator 16.0.0, SVG Export Plug-In . SVG Version: 6.00 Build 0)  -->
<!DOCTYPE svg PUBLIC "-//W3C//DTD SVG 1.1//EN" "http://www.w3.org/Graphics/SVG/1.1/DTD/svg11.dtd">
<svg version="1.1" id="Layer_1" xmlns="http://www.w3.org/2000/svg" xmlns:xlink="http://www.w3.org/1999/xlink" x="0px" y="0px"
	 width="200px" height="200px" viewBox="0 0 200 200" enable-background="new 0 0 200 200" xml:space="preserve">
<g>
	<path fill="#FFFFFF" d="M95.297,3.958c3.875,1.386,5.239,4.196,5.235,8.222c-0.057,58.64-0.058,117.279,0.001,175.917
		c0.004,4.03-1.381,6.818-5.236,8.213c-25.547,0-51.094,0-76.641,0c-0.243-0.604-0.898-0.59-1.347-0.886
		c-1.956-1.276-3.215-2.997-3.22-5.392c-0.025-16.215-0.029-32.428-0.013-48.641c0.002-1.861,1.034-2.934,2.655-2.99
		c1.69-0.062,2.895,1.043,2.941,2.941c0.078,3.19,0.012,6.387,0.042,9.576c0.004,0.439-0.271,0.989,0.315,1.366
		c12.505-10.897,24.985-21.81,37.521-32.653c1.511-1.308,0.051-2.193-0.099-3.265c-0.18-1.287-1.175-0.871-1.904-0.787
		c-11.495,1.323-22.983,2.694-34.482,3.978c-1.165,0.131-1.428,0.504-1.392,1.59c0.076,2.25,0.095,4.509-0.018,6.758
		c-0.088,1.764-1.332,2.801-2.955,2.727c-1.56-0.07-2.52-1.098-2.627-2.831c-0.027-0.437-0.013-0.876-0.013-1.315
		c-0.001-38.25-0.001-76.5,0-114.75c0-0.563,0.003-1.127,0.028-1.689c0.08-1.862,0.904-3.365,2.317-4.53
		c0.701-0.578,1.496-1.042,2.248-1.559C44.203,3.958,69.75,3.958,95.297,3.958z M94.854,100.325c0-12.77-0.028-25.54,0.035-38.31
		c0.008-1.535-0.377-1.906-1.864-1.621c-19.147,3.678-32.776,20.094-32.869,39.643c-0.093,19.511,13.612,36.1,32.865,39.834
		c1.478,0.286,1.876-0.064,1.869-1.611C94.826,125.615,94.854,112.971,94.854,100.325z M31.322,9.595
		c0.509,0.597,0.778,0.918,1.054,1.235c13.616,15.61,27.231,31.221,40.851,46.829c0.943,1.082,1.739,2.661,2.923,3.06
		c1.222,0.412,2.4-1.243,3.743-1.681c1.248-0.408,1.626-1.169,1.524-2.51c-0.579-7.612-1.059-15.231-1.576-22.848
		c-0.508-7.491-1.021-14.983-1.535-22.475c-0.059-0.862,0.036-1.648-1.355-1.642C61.869,9.615,46.787,9.595,31.322,9.595z
		 M31.518,190.424c0.193,0.152,0.237,0.219,0.28,0.219c15.085,0.015,30.171,0.01,45.256,0.058c1.109,0.003,1.189-0.55,1.236-1.363
		c0.144-2.501,0.306-4.996,0.477-7.494c0.828-12.048,1.578-24.103,2.558-36.139c0.214-2.623-0.047-4.47-2.858-5.201
		c-0.291-0.075-0.563-0.278-0.807-0.47c-0.99-0.77-1.659-0.701-2.574,0.355C60.615,157.075,46.087,173.713,31.518,190.424z
		 M19.702,175.1c0,4.567-0.007,9.135,0.007,13.703c0.003,0.713-0.229,1.752,0.821,1.801c1.531,0.069,3.039,0.453,4.403-1.123
		c15.188-17.549,30.458-35.022,45.739-52.489c0.76-0.869,0.742-1.273-0.149-2.013c-3.341-2.775-6.192-6.021-8.482-9.707
		c-0.752-1.209-1.184-1.136-2.167-0.272c-13.036,11.413-26.103,22.793-39.179,34.163c-0.716,0.622-1.031,1.259-1.019,2.232
		C19.732,165.963,19.702,170.532,19.702,175.1z M22.036,9.674c-1.968-0.568-2.379,0.425-2.365,2.271
		c0.07,8.885,0.033,17.771,0.029,26.656c0,0.87-0.013,1.625,0.795,2.327C33.723,52.407,46.921,63.92,60.102,75.456
		c0.814,0.712,1.176,0.73,1.781-0.235c2.337-3.734,5.187-7.059,8.58-9.87c0.976-0.809,0.925-1.242,0.136-2.143
		c-15.197-17.376-30.362-34.779-45.517-52.19C24.27,10.085,23.52,9.203,22.036,9.674z M19.702,100.131
		c0,4.008,0.068,8.016-0.035,12.02c-0.04,1.551,0.23,2.011,1.927,1.74c3.826-0.605,7.697-0.934,11.55-1.377
		c6.897-0.793,13.791-1.623,20.695-2.354c1.515-0.159,1.671-0.646,1.4-2.087c-0.977-5.209-1.038-10.483-0.015-15.679
		c0.364-1.852-0.208-2.156-1.751-2.33c-10.815-1.215-21.626-2.469-32.432-3.757c-1.104-0.132-1.377,0.159-1.363,1.24
		C19.735,91.742,19.702,95.937,19.702,100.131z M19.958,47.924c-0.134,0.246-0.232,0.341-0.232,0.438
		c-0.013,10.384,0.005,20.769-0.055,31.152c-0.007,1.219,0.69,1.077,1.416,1.162c11.484,1.339,22.967,2.685,34.451,4.018
		c0.839,0.097,1.756,0.371,2.02-0.947c0.233-1.159,1.251-2.076-0.265-3.365c-8.05-6.848-15.966-13.852-23.933-20.796
		C28.906,55.701,24.444,51.827,19.958,47.924z M87.019,56.048c2.377-0.516,4.584-1.229,6.89-1.42
		c1.002-0.083,0.953-0.754,0.953-1.473c-0.007-13.89-0.021-27.78,0.018-41.669c0.004-1.499-0.555-1.968-1.999-1.917
		c-2.5,0.087-5.006,0.078-7.507,0c-1.171-0.036-1.558,0.184-1.461,1.503c0.734,10.043,1.362,20.093,2.042,30.14
		C86.288,46.137,86.659,51.059,87.019,56.048z M87.005,144.225c-0.308,4.434-0.618,8.795-0.913,13.157
		c-0.728,10.731-1.433,21.468-2.199,32.197c-0.073,1.01,0.268,1.125,1.113,1.112c2.564-0.043,5.134-0.1,7.694,0.013
		c1.622,0.069,2.225-0.446,2.187-2.119c-0.094-4.127-0.03-8.259-0.03-12.39c0-9.57,0.005-19.145-0.01-28.717
		c-0.001-0.737,0.358-1.724-0.947-1.836C91.597,145.443,89.395,144.727,87.005,144.225z"/>
	<path fill="#FFFFFF" d="M112.578,196.311c-3.936-1.875-4.752-5.138-4.736-9.235c0.112-29.048,0.059-58.093,0.069-87.141
		c0.002-1.121-0.009-2.279,0.25-3.357c0.679-2.839,3.276-4.745,6.429-4.747c21.911-0.017,43.821-0.019,65.73,0
		c4.007,0.003,6.715,2.685,6.717,6.722c0.023,30.3,0.01,60.599,0.02,90.897c0,3.707-2.062,5.749-5.351,6.861
		C158.664,196.311,135.621,196.311,112.578,196.311z M181.411,144.146c0-14.838-0.026-29.678,0.036-44.515
		c0.008-1.745-0.508-2.221-2.234-2.208c-10.393,0.077-20.785,0.056-31.178,0.015c-1.184-0.005-1.564,0.233-1.523,1.529
		c0.262,8.239-1.625,15.988-5.582,23.224c-1.479,2.703-2.853,3.41-4.613,2.39c-1.627-0.942-1.742-2.537-0.351-5.075
		c3.509-6.393,5.116-13.234,4.954-20.522c-0.025-1.184-0.338-1.562-1.581-1.552c-7.952,0.06-15.901,0.065-23.854,0
		c-1.486-0.013-1.963,0.448-1.959,1.92c0.041,12.458,0.039,24.917,0,37.378c-0.004,1.328,0.24,1.623,1.562,1.1
		c4.281-1.702,8.172-4.02,11.688-6.986c1.777-1.501,3.455-1.535,4.6-0.137c1.143,1.396,0.869,2.859-0.883,4.363
		c-4.559,3.912-9.669,6.871-15.399,8.688c-1.228,0.389-1.581,0.956-1.577,2.239c0.053,14.087,0.065,28.172-0.004,42.26
		c-0.009,1.858,0.465,2.466,2.409,2.459c21.037-0.067,42.073-0.065,63.108,0c1.91,0.005,2.434-0.526,2.424-2.428
		C181.378,173.573,181.411,158.859,181.411,144.146z"/>
	<path fill="#FFFFFF" d="M181.706,3.958c4.444,1.837,5.346,3.246,5.346,8.366c0,21.158,0.003,42.316-0.002,63.475
		c0,5.378-2.414,7.792-7.776,7.794c-3.629,0.001-7.263,0.012-10.893-0.005c-2.156-0.01-3.48-1.113-3.471-2.838
		c0.008-1.724,1.313-2.784,3.5-2.792c3.755-0.014,7.511-0.044,11.266,0.018c1.309,0.022,1.756-0.447,1.756-1.744
		c-0.027-21.66-0.031-43.318,0.004-64.978c0.002-1.56-0.778-1.677-2-1.674c-13.709,0.024-27.418,0.015-41.127,0.015
		c-7.574,0-15.148,0.041-22.724-0.033c-1.571-0.015-2.069,0.476-2.065,2.03c0.043,14.272,0.043,28.545-0.004,42.817
		c-0.006,1.234,0.418,1.693,1.532,2.069c10.856,3.662,19.231,10.449,25.116,20.273c0.559,0.93,1.148,1.244,2.204,1.227
		c3.817-0.062,7.636-0.035,11.456-0.02c2.152,0.008,3.466,1.114,3.439,2.842c-0.025,1.723-1.33,2.786-3.512,2.788
		c-12.833,0.008-25.666,0.008-38.498,0.002c-4.714-0.002-7.339-2.58-7.345-7.299c-0.021-16.526-0.007-33.052-0.007-49.578
		c-0.002-4.57,0.176-9.148-0.055-13.707c-0.205-4.069,0.889-7.214,4.729-9.049C135.621,3.958,158.664,3.958,181.706,3.958z
		 M134.309,77.954c-5.074-7.463-11.531-12.533-19.551-15.655c-0.854-0.332-1.236-0.2-1.229,0.835
		c0.037,4.441,0.021,8.884,0.014,13.325c-0.002,0.972,0.338,1.509,1.423,1.505C121.273,77.942,127.583,77.954,134.309,77.954z"/>
</g>
</svg>
